<?xml version="1.0" encoding="UTF-8"?>
<svg width="16px" height="19px" viewBox="0 0 16 19" version="1.1" xmlns="http://www.w3.org/2000/svg" xmlns:xlink="http://www.w3.org/1999/xlink">
    <g id="新建流程" stroke="none" stroke-width="1" fill="none" fill-rule="evenodd">
        <g id="图标切图" transform="translate(-267.000000, -64.000000)">
            <g id="编组" transform="translate(264.000000, 61.000000)">
                <g fill="#FFFFFF" fill-opacity="0" id="无底">
                    <g>
                        <rect id="矩形" x="0" y="0" width="24" height="24"></rect>
                    </g>
                </g>
                <g id="编组-33" transform="translate(4.000000, 2.500000)">
                    <g id="编组-6备份-5" transform="translate(0.000000, 2.500000)" stroke="#000000">
                        <path d="M1,0 L5.93644708,0 L5.93644708,0 L12,5.77447422 L12,7.74251963 L12,15 C12,15.5522847 11.5522847,16 11,16 L1,16 C0.44771525,16 6.76353751e-17,15.5522847 0,15 L0,1 C-6.76353751e-17,0.44771525 0.44771525,1.01453063e-16 1,0 Z" id="矩形备份-8"></path>
                    </g>
                    <g id="编组-6备份" transform="translate(2.500000, 0.000000)">
                        <path d="M1,1.2216633 L5.93644708,1.2216633 L5.93644708,1.2216633 L12,6.63523289 L12,8.48027545 L12,15.2216633 C12,15.7739481 11.5522847,16.2216633 11,16.2216633 L1,16.2216633 C0.44771525,16.2216633 6.76353751e-17,15.7739481 0,15.2216633 L0,2.2216633 C-6.76353751e-17,1.66937855 0.44771525,1.2216633 1,1.2216633 Z" id="矩形备份-8" stroke="#007AFF" fill="#EBF4FF"></path>
                        <path d="M12.4695871,7.19072095 L6.77349929,7.19072095 C6.22121454,7.19072095 5.77349929,6.7430057 5.77349929,6.19072095 L5.77349929,0.821845784 L5.77349929,0.821845784 L12.4695871,7.19072095 Z" id="路径" fill="#007AFF"></path>
                    </g>
                </g>
            </g>
        </g>
    </g>
</svg>