<?xml version="1.0" encoding="UTF-8"?>
<svg width="18px" height="18px" viewBox="0 0 18 18" version="1.1" xmlns="http://www.w3.org/2000/svg" xmlns:xlink="http://www.w3.org/1999/xlink">
    <g id="新建流程" stroke="none" stroke-width="1" fill="none" fill-rule="evenodd">
        <g id="图标切图" transform="translate(-267.000000, -40.000000)">
            <g id="编组" transform="translate(264.000000, 37.000000)">
                <g fill="#FFFFFF" fill-opacity="0" id="无底">
                    <g>
                        <rect id="矩形" x="0" y="0" width="24" height="24"></rect>
                    </g>
                </g>
                <g id="编组-23" transform="translate(3.000000, 2.500000)">
                    <g id="编组-5备份" transform="translate(4.190047, 0.500000)" stroke="#000000" stroke-width="0.8">
                        <path d="M9.46365732,0.511521086 C9.48471711,0.527225471 9.49841791,0.551362697 9.50143057,0.578067669 C9.90458454,4.15172373 9.20486125,6.97677593 7.40226071,9.05322427 C7.27415172,9.20079535 7.14593009,9.34568147 7.01759584,9.48788262 L8.98692851,12.309769 L7.67744291,13.5 C6.68183147,12.8921043 5.69301674,12.1285935 4.71099873,11.2094676 L3.47020648,9.96143743 C3.2471001,9.72134791 3.02434868,9.47313137 2.80195221,9.21678784 C1.0060323,7.14673488 0.310629053,4.32844491 0.715742463,0.761917914 C0.718972428,0.733482032 0.734269892,0.707806583 0.757739532,0.691429525 C0.802881816,0.659929347 0.865012807,0.670988458 0.896783604,0.715941905 L0.896783604,0.715941905 L5.04789713,6.66542979 L5.03632365,6.68329529 L7.01401439,9.49185033 C7.01520821,9.49052799 7.01640203,9.48920542 7.01759584,9.48788262 L5.04789713,6.66542979 L9.33382315,0.53337294 C9.36400808,0.490342462 9.42210276,0.480533659 9.46365732,0.511521086 Z M3.04536357,9.53245209 L3.47020648,9.96143743 C3.88259118,10.4052134 4.2961886,10.8212234 4.71099873,11.2094676 L4.99743606,11.4963612 C4.44966352,11.979177 3.62347133,12.5953296 2.51885949,13.344819 L1.21132083,12.1570528 L3.04536357,9.53245209 Z" id="形状结合"></path>
                    </g>
                    <path d="M5.30263991,13.2947664 C4.87041393,12.9320858 4.20968084,13.0079294 3.82685125,13.4641679 L2.44050269,15.1163538 C2.0576731,15.5725924 2.09771679,16.2364575 2.52994277,16.5991382 C2.96216875,16.9618188 3.62290183,16.8859752 4.00573142,16.4297367 L5.39207999,14.7775508 C5.77490958,14.3213122 5.73486589,13.6574471 5.30263991,13.2947664 Z M6.09960484,12.3292211 C7.06010702,13.1351781 7.18539062,14.5671762 6.37943359,15.5276784 L4.92011931,17.2668214 C4.11416229,18.2273236 2.68216417,18.3526072 1.72166199,17.5466502 C0.761159811,16.7406932 0.635876209,15.308695 1.44183323,14.3481929 L2.90114752,12.6090498 C3.70710454,11.6485477 5.13910266,11.523264 6.09960484,12.3292211 Z" id="矩形备份-62" fill="#007AFF"></path>
                    <path d="M16.0409356,13.2947664 C15.6087096,12.9320858 14.9479766,13.0079294 14.565147,13.4641679 L13.1787984,15.1163538 C12.7959688,15.5725924 12.8360125,16.2364575 13.2682385,16.5991382 C13.7004645,16.9618188 14.3611976,16.8859752 14.7440271,16.4297367 L16.1303757,14.7775508 C16.5132053,14.3213122 16.4731616,13.6574471 16.0409356,13.2947664 Z M16.8379006,12.3292211 C17.7984027,13.1351781 17.9236863,14.5671762 17.1177293,15.5276784 L15.658415,17.2668214 C14.852458,18.2273236 13.4204599,18.3526072 12.4599577,17.5466502 C11.4994555,16.7406932 11.3741719,15.308695 12.180129,14.3481929 L13.6394432,12.6090498 C14.4454003,11.6485477 15.8773984,11.523264 16.8379006,12.3292211 Z" id="矩形备份-63" fill="#007AFF" transform="translate(14.648929, 14.937936) scale(-1, 1) translate(-14.648929, -14.937936) "></path>
                </g>
            </g>
        </g>
    </g>
</svg>