<?xml version="1.0" encoding="UTF-8"?>
<svg width="24px" height="24px" viewBox="0 0 24 24" version="1.1" xmlns="http://www.w3.org/2000/svg" xmlns:xlink="http://www.w3.org/1999/xlink">
    <g id="icon-保存" stroke="none" stroke-width="1" fill="none" fill-rule="evenodd">
        <g id="编组" fill="#FFFFFF" fill-opacity="0">
            <g id="无底">
                <rect id="矩形" x="0" y="0" width="24" height="24"></rect>
            </g>
        </g>
        <g id="编组-10" transform="translate(3.500000, 2.000000)">
            <path d="M1.5,0.5 L10.6928893,0.5 C10.9555669,0.5 11.207697,0.60335484 11.3947945,0.787729652 L16.2019052,5.52488623 C16.3926207,5.7128264 16.5,5.96939939 16.5,6.23715657 L16.5,18.5 C16.5,19.0522847 16.0522847,19.5 15.5,19.5 L1.5,19.5 C0.94771525,19.5 0.5,19.0522847 0.5,18.5 L0.5,1.5 C0.5,0.94771525 0.94771525,0.5 1.5,0.5 Z" id="矩形备份-29" stroke="#000000"></path>
            <rect id="矩形" fill="#CBCBCB" x="4.5" y="4" width="8" height="1" rx="0.5"></rect>
            <path d="M3.5,19.0175241 L3.5,9.01752409 C3.5,8.46523934 3.94771525,8.01752409 4.5,8.01752409 L12.5,8.01752409 C13.0522847,8.01752409 13.5,8.46523934 13.5,9.01752409 L13.5,19.0175241 L13.5,19.0175241" id="路径" stroke="#007AFF" fill="#EBF4FF"></path>
        </g>
    </g>
</svg>