<?xml version="1.0" encoding="UTF-8"?>
<svg width="24px" height="24px" viewBox="0 0 24 24" version="1.1" xmlns="http://www.w3.org/2000/svg" xmlns:xlink="http://www.w3.org/1999/xlink">
    <g id="Icon/Studio/工具/停止" stroke="none" stroke-width="1" fill="none" fill-rule="evenodd">
        <rect id="bg" fill="#FFFFFF" opacity="0" x="0" y="0" width="24" height="24"></rect>
        <path d="M13.5209797,6.78007117 L20.172347,16.9527506 C20.4745845,17.4149962 20.3448723,18.0347321 19.8826268,18.3369696 C19.7199327,18.4433465 19.529762,18.5 19.3353774,18.5 L6.03264273,18.5 C5.48035798,18.5 5.03264273,18.0522847 5.03264273,17.5 C5.03264273,17.3056154 5.08929625,17.1154447 5.19567311,16.9527506 L11.8470405,6.78007117 C12.1492779,6.31782562 12.7690139,6.18811345 13.2312594,6.49035092 C13.3467941,6.56589284 13.4454378,6.66453647 13.5209797,6.78007117 Z" id="三角形" fill="#6DD400" transform="translate(12.684010, 12.000000) rotate(90.000000) translate(-12.684010, -12.000000) "></path>
        <path d="M11.4741378,6.22967016 L4.82277044,16.4023496 C4.68979936,16.6057172 4.61898246,16.8434305 4.61898246,17.0864113 C4.61898246,17.7767673 5.17862652,18.3364113 5.86898246,18.3364113 L19.1717171,18.3364113 C19.4146979,18.3364113 19.6524113,18.2655944 19.8557788,18.1326233 C20.4335858,17.7548265 20.595726,16.9801566 20.2179292,16.4023496 L13.5665618,6.22967016 C13.4721344,6.08525178 13.3488299,5.96194724 13.2044115,5.86751984 C12.6266046,5.489723 11.8519346,5.65186322 11.4741378,6.22967016 Z M12.9307868,6.28600465 C13.0174378,6.34266109 13.0914206,6.41664382 13.148077,6.50329484 L19.7994444,16.6759743 C20.0261225,17.0226585 19.9288383,17.4874604 19.5821542,17.7141385 C19.4601336,17.7939212 19.3175056,17.8364113 19.1717171,17.8364113 L5.86898246,17.8364113 C5.4547689,17.8364113 5.11898246,17.5006249 5.11898246,17.0864113 C5.11898246,16.9406229 5.1614726,16.7979948 5.24125525,16.6759743 L11.8926226,6.50329484 C12.0986936,6.18812742 12.5015612,6.07907572 12.8335757,6.23215945 L12.9307868,6.28600465 Z" id="三角形-copy-2" fill="#56A902" fill-rule="nonzero" transform="translate(12.520421, 12.000000) rotate(90.000000) translate(-12.520421, -12.000000) "></path>
        <rect id="Rectangle" stroke="#C94439" stroke-width="0.5" fill="#FE5855" x="4.25" y="4.25" width="15.5" height="15.5" rx="2"></rect>
    </g>
</svg>